<svg xmlns="http://www.w3.org/2000/svg" width="24" height="24" viewBox="0 0 24 24" fill="none">
    <path fill-rule="evenodd" clip-rule="evenodd" d="M4.43671 2.09009L5.45796 4.24009H21.3711C21.75 4.24009 22.0346 4.40553 22.2341 4.74599C22.4333 5.08663 22.4415 5.42532 22.2594 5.77366L22.2589 5.77458L18.4435 12.653C18.2537 12.9981 18.0001 13.2637 17.683 13.4521C17.3661 13.6407 17.0194 13.7351 16.6411 13.7351H8.57913L7.29763 16.0651H20.2598V18.0351H7.44984C6.67627 18.0351 6.0964 17.6986 5.70011 17.0177C5.30326 16.3365 5.28721 15.6665 5.64784 14.9965L7.1209 12.3232L3.2068 4.06009H1.08984V2.09009H4.43671ZM19.7496 6.21009H6.39306L9.05946 11.7651H16.6943L19.7496 6.21009Z" fill="currentColor"/>
    <path d="M7.44965 23.4093C6.88243 23.4093 6.39931 23.2086 5.99539 22.8046C5.59071 22.4 5.38965 21.9165 5.38965 21.3493C5.38965 20.7821 5.59071 20.2986 5.99539 19.894C6.39931 19.49 6.88243 19.2893 7.44965 19.2893C8.01686 19.2893 8.49998 19.49 8.90391 19.894C9.30858 20.2986 9.50965 20.7821 9.50965 21.3493C9.50965 21.9165 9.30858 22.4 8.90391 22.8046C8.49998 23.2086 8.01686 23.4093 7.44965 23.4093Z" fill="currentColor"></path>
    <path d="M18.1996 23.4093C17.6324 23.4093 17.1493 23.2086 16.7454 22.8046C16.3407 22.4 16.1396 21.9165 16.1396 21.3493C16.1396 20.7821 16.3407 20.2986 16.7454 19.894C17.1493 19.49 17.6324 19.2893 18.1996 19.2893C18.7668 19.2893 19.2503 19.49 19.655 19.894C20.0589 20.2986 20.2596 20.7821 20.2596 21.3493C20.2596 21.9165 20.0589 22.4 19.655 22.8046C19.2503 23.2086 18.7668 23.4093 18.1996 23.4093Z" fill="currentColor"></path>
</svg>