  <svg xmlns="http://www.w3.org/2000/svg" width="130" height="36" viewBox="0 0 127 29" fill="none">
    <path d="M0.737192 22V0.299754H9.42577C11.0222 0.299754 12.3537 0.536394 13.4204 1.00967C14.487 1.48295 15.2888 2.1399 15.8256 2.9805C16.3625 3.81404 16.6309 4.77472 16.6309 5.86256C16.6309 6.71023 16.4614 7.45547 16.1223 8.09828C15.7833 8.73403 15.317 9.25676 14.7237 9.66646C14.1374 10.0691 13.4663 10.3552 12.7105 10.5247V10.7366C13.5369 10.772 14.3104 11.0051 15.031 11.436C15.7585 11.8669 16.3484 12.4708 16.8005 13.2478C17.2525 14.0178 17.4786 14.9361 17.4786 16.0028C17.4786 17.1542 17.1925 18.182 16.6203 19.0861C16.0552 19.9833 15.2181 20.6932 14.1091 21.2159C13.0001 21.7386 11.6332 22 10.0085 22H0.737192ZM5.32518 18.2491H9.06551C10.3441 18.2491 11.2765 18.0054 11.8628 17.518C12.4491 17.0235 12.7423 16.3666 12.7423 15.5471C12.7423 14.9467 12.5975 14.4169 12.3078 13.9578C12.0182 13.4986 11.605 13.1384 11.0681 12.877C10.5383 12.6156 9.90611 12.485 9.17147 12.485H5.32518V18.2491ZM5.32518 9.38037H8.72644C9.35513 9.38037 9.91317 9.27088 10.4006 9.0519C10.8951 8.82586 11.2836 8.50799 11.5661 8.09828C11.8557 7.68858 12.0006 7.19764 12.0006 6.62546C12.0006 5.84137 11.7215 5.20915 11.1635 4.72881C10.6125 4.24846 9.82841 4.00829 8.81121 4.00829H5.32518V9.38037ZM25.0202 22.3073C23.9818 22.3073 23.0564 22.1271 22.2441 21.7669C21.4317 21.3996 20.7889 20.8592 20.3156 20.1457C19.8494 19.4252 19.6163 18.5281 19.6163 17.4544C19.6163 16.5502 19.7823 15.7908 20.1143 15.1763C20.4463 14.5617 20.8984 14.0673 21.4706 13.6929C22.0427 13.3185 22.6926 13.0359 23.4202 12.8452C24.1548 12.6545 24.9248 12.5203 25.7301 12.4426C26.6766 12.3437 27.4395 12.2518 28.0188 12.1671C28.598 12.0752 29.0183 11.941 29.2797 11.7644C29.5411 11.5878 29.6717 11.3265 29.6717 10.9803V10.9168C29.6717 10.2457 29.4598 9.7265 29.036 9.35918C28.6192 8.99186 28.0258 8.8082 27.2559 8.8082C26.4435 8.8082 25.7972 8.98833 25.3169 9.34859C24.8365 9.70178 24.5186 10.1468 24.3632 10.6837L20.1885 10.3446C20.4004 9.35565 20.8172 8.50092 21.4388 7.78041C22.0604 7.05283 22.8622 6.49478 23.844 6.10626C24.833 5.71069 25.9773 5.5129 27.2771 5.5129C28.1813 5.5129 29.0466 5.61886 29.8731 5.83077C30.7066 6.04269 31.4448 6.37116 32.0876 6.81618C32.7375 7.26121 33.2496 7.83338 33.624 8.53271C33.9984 9.22497 34.1856 10.055 34.1856 11.0227V22H29.9048V19.7431H29.7777C29.5163 20.2517 29.1667 20.7002 28.7287 21.0888C28.2907 21.4702 27.7645 21.7704 27.1499 21.9894C26.5354 22.2013 25.8255 22.3073 25.0202 22.3073ZM26.3129 19.1921C26.9769 19.1921 27.5632 19.0614 28.0718 18.8001C28.5804 18.5316 28.9795 18.1714 29.2691 17.7193C29.5587 17.2672 29.7035 16.7551 29.7035 16.1829V14.4558C29.5622 14.5476 29.368 14.6324 29.1208 14.7101C28.8806 14.7807 28.6086 14.8478 28.3049 14.9114C28.0011 14.9679 27.6974 15.0209 27.3936 15.0703C27.0899 15.1127 26.8144 15.1516 26.5672 15.1869C26.0374 15.2646 25.5747 15.3882 25.1791 15.5577C24.7835 15.7273 24.4762 15.9568 24.2573 16.2465C24.0383 16.529 23.9288 16.8822 23.9288 17.3061C23.9288 17.9206 24.1513 18.3904 24.5963 18.7153C25.0484 19.0332 25.6206 19.1921 26.3129 19.1921ZM37.6027 22V19.3087L45.5708 9.44395V9.3274H37.8782V5.72482H51.0064V8.65986L43.5258 18.2809V18.3974H51.2819V22H37.6027ZM59.3745 22.3073C58.3361 22.3073 57.4107 22.1271 56.5984 21.7669C55.786 21.3996 55.1432 20.8592 54.6699 20.1457C54.2037 19.4252 53.9706 18.5281 53.9706 17.4544C53.9706 16.5502 54.1366 15.7908 54.4686 15.1763C54.8006 14.5617 55.2527 14.0673 55.8249 13.6929C56.397 13.3185 57.0469 13.0359 57.7745 12.8452C58.5091 12.6545 59.2791 12.5203 60.0844 12.4426C61.031 12.3437 61.7939 12.2518 62.3731 12.1671C62.9523 12.0752 63.3726 11.941 63.634 11.7644C63.8954 11.5878 64.026 11.3265 64.026 10.9803V10.9168C64.026 10.2457 63.8141 9.7265 63.3903 9.35918C62.9735 8.99186 62.3802 8.8082 61.6102 8.8082C60.7978 8.8082 60.1515 8.98833 59.6712 9.34859C59.1908 9.70178 58.8729 10.1468 58.7175 10.6837L54.5428 10.3446C54.7547 9.35565 55.1715 8.50092 55.7931 7.78041C56.4147 7.05283 57.2165 6.49478 58.1983 6.10626C59.1873 5.71069 60.3316 5.5129 61.6314 5.5129C62.5356 5.5129 63.4009 5.61886 64.2274 5.83077C65.0609 6.04269 65.7991 6.37116 66.4419 6.81618C67.0918 7.26121 67.6039 7.83338 67.9783 8.53271C68.3527 9.22497 68.5399 10.055 68.5399 11.0227V22H64.2591V19.7431H64.132C63.8706 20.2517 63.521 20.7002 63.083 21.0888C62.6451 21.4702 62.1188 21.7704 61.5042 21.9894C60.8897 22.2013 60.1798 22.3073 59.3745 22.3073ZM60.6672 19.1921C61.3312 19.1921 61.9175 19.0614 62.4261 18.8001C62.9347 18.5316 63.3338 18.1714 63.6234 17.7193C63.913 17.2672 64.0578 16.7551 64.0578 16.1829V14.4558C63.9165 14.5476 63.7223 14.6324 63.4751 14.7101C63.2349 14.7807 62.9629 14.8478 62.6592 14.9114C62.3554 14.9679 62.0517 15.0209 61.7479 15.0703C61.4442 15.1127 61.1687 15.1516 60.9215 15.1869C60.3917 15.2646 59.929 15.3882 59.5334 15.5577C59.1378 15.7273 58.8306 15.9568 58.6116 16.2465C58.3926 16.529 58.2831 16.8822 58.2831 17.3061C58.2831 17.9206 58.5056 18.3904 58.9506 18.7153C59.4027 19.0332 59.9749 19.1921 60.6672 19.1921ZM72.0418 22V5.72482H76.4179V8.5645H76.5874C76.8841 7.55436 77.3821 6.79146 78.0814 6.2758C78.7807 5.75307 79.586 5.49171 80.4973 5.49171C80.7233 5.49171 80.967 5.50584 81.2284 5.53409C81.4897 5.56235 81.7193 5.6012 81.9171 5.65064V9.65587C81.7052 9.59229 81.412 9.53578 81.0376 9.48633C80.6633 9.43689 80.3207 9.41216 80.0098 9.41216C79.3458 9.41216 78.7525 9.55697 78.2297 9.84659C77.7141 10.1291 77.3044 10.5247 77.0006 11.0333C76.7039 11.5419 76.5556 12.1282 76.5556 12.7922V22H72.0418Z" fill="#FF2E00"></path>
    <path d="M86.8892 22.2755C86.1899 22.2755 85.5894 22.0283 85.0879 21.5338C84.5934 21.0322 84.3462 20.4318 84.3462 19.7325C84.3462 19.0402 84.5934 18.4469 85.0879 17.9524C85.5894 17.4579 86.1899 17.2107 86.8892 17.2107C87.5673 17.2107 88.1607 17.4579 88.6693 17.9524C89.1779 18.4469 89.4322 19.0402 89.4322 19.7325C89.4322 20.1987 89.3121 20.6261 89.0719 21.0146C88.8388 21.396 88.5315 21.7033 88.1501 21.9364C87.7686 22.1625 87.3483 22.2755 86.8892 22.2755ZM93.2228 22V0.299754H97.7367V8.45854H97.8744C98.0722 8.02058 98.3583 7.57555 98.7327 7.12346C99.1141 6.66431 99.6086 6.28286 100.216 5.97912C100.831 5.66831 101.594 5.5129 102.505 5.5129C103.692 5.5129 104.786 5.82371 105.789 6.44533C106.793 7.05989 107.594 7.98879 108.195 9.23203C108.795 10.4682 109.095 12.0187 109.095 13.8836C109.095 15.699 108.802 17.2319 108.216 18.4822C107.637 19.7254 106.846 20.6685 105.842 21.3113C104.846 21.947 103.73 22.2649 102.494 22.2649C101.618 22.2649 100.873 22.1201 100.258 21.8305C99.651 21.5408 99.153 21.1771 98.7644 20.7391C98.3759 20.2941 98.0793 19.8455 97.8744 19.3934H97.6731V22H93.2228ZM97.6413 13.8624C97.6413 14.8302 97.7755 15.6743 98.0439 16.3948C98.3124 17.1153 98.7009 17.6769 99.2095 18.0795C99.7181 18.4751 100.336 18.6729 101.064 18.6729C101.798 18.6729 102.42 18.4716 102.929 18.0689C103.437 17.6592 103.822 17.0941 104.084 16.3736C104.352 15.646 104.486 14.809 104.486 13.8624C104.486 12.9229 104.356 12.0964 104.094 11.383C103.833 10.6695 103.448 10.1115 102.939 9.70884C102.431 9.3062 101.805 9.10488 101.064 9.10488C100.329 9.10488 99.7075 9.29914 99.1989 9.68765C98.6973 10.0762 98.3124 10.6271 98.0439 11.3406C97.7755 12.0541 97.6413 12.8947 97.6413 13.8624ZM114.369 28.1032C113.797 28.1032 113.26 28.0573 112.759 27.9654C112.264 27.8807 111.855 27.7712 111.53 27.637L112.547 24.2675C113.077 24.43 113.554 24.5183 113.977 24.5324C114.408 24.5465 114.779 24.4476 115.09 24.2357C115.408 24.0238 115.666 23.6635 115.863 23.1549L116.128 22.4662L110.29 5.72482H115.037L118.406 17.6769H118.576L121.977 5.72482H126.756L120.43 23.7589C120.127 24.6348 119.713 25.3977 119.191 26.0476C118.675 26.7045 118.021 27.2096 117.23 27.5628C116.439 27.9231 115.486 28.1032 114.369 28.1032Z" fill="black"></path>
  </svg>