<svg xmlns="http://www.w3.org/2000/svg" width="24" height="24" viewBox="0 0 24 24" fill="none">
<path d="M11 -0.15L10.85 -0.15L10.85 -4.74269e-07L10.85 10.85L-5.74805e-07 10.85L-0.150001 10.85L-0.150001 11L-0.15 13L-0.15 13.15L-4.74269e-07 13.15L10.85 13.15L10.85 24L10.85 24.15L11 24.15L13 24.15L13.15 24.15L13.15 24L13.15 13.15L24 13.15L24.15 13.15L24.15 13L24.15 11L24.15 10.85L24 10.85L13.15 10.85L13.15 -5.74805e-07L13.15 -0.15L13 -0.15L11 -0.15Z" fill="black" stroke="black" stroke-width="0.3"/>
</svg>